<svg width="16" height="16" viewBox="0 0 16 16" fill="none" xmlns="http://www.w3.org/2000/svg">
<g clip-path="url(#clip0_118_158)">
<g clip-path="url(#clip1_118_158)">
<path d="M15.6604 4.33274C15.5693 4.00969 15.3905 3.71515 15.1422 3.47861C14.8938 3.24207 14.5845 3.07186 14.2453 2.98502C12.1711 2.74908 10.0828 2.64282 7.99401 2.66692C5.90548 2.64285 3.81754 2.74911 1.74361 2.98502C1.4044 3.07186 1.09512 3.24207 0.846752 3.47861C0.598384 3.71515 0.419653 4.00969 0.32847 4.33274C0.0981567 5.54162 -0.0136637 6.76827 -0.00554817 7.99687C-0.0138789 9.22659 0.0979423 10.4544 0.32847 11.6644C0.41963 11.9872 0.59826 12.2815 0.846467 12.5179C1.09467 12.7543 1.40374 12.9244 1.74272 13.0112C3.81694 13.2472 5.90518 13.3535 7.99401 13.3294C10.0828 13.3535 12.1711 13.2472 14.2453 13.0112C14.5843 12.9244 14.8933 12.7543 15.1415 12.5179C15.3898 12.2815 15.5684 11.9872 15.6595 11.6644C15.8904 10.4544 16.0025 9.22662 15.9945 7.99687C16.0028 6.76714 15.891 5.53935 15.6604 4.32935M6.39054 10.2854V5.7126L10.5471 7.99687L6.39054 10.2854Z" fill="white"/>
</g>
</g>
<defs>
<clipPath id="clip0_118_158">
<rect width="16" height="16" fill="white" transform="translate(-0.00549316)"/>
</clipPath>
<clipPath id="clip1_118_158">
<rect width="16" height="10.6667" fill="white" transform="translate(-0.00549316 2.66669)"/>
</clipPath>
</defs>
</svg>
