<svg width="16" height="16" viewBox="0 0 16 16" fill="none" xmlns="http://www.w3.org/2000/svg">
<g clip-path="url(#clip0_118_150)">
<path d="M15.6659 4.33274C15.5747 4.00969 15.396 3.71515 15.1476 3.47861C14.8993 3.24207 14.59 3.07186 14.2508 2.98502C12.1766 2.74908 10.0883 2.64282 7.9995 2.66692C5.91097 2.64285 3.82304 2.74911 1.7491 2.98502C1.40989 3.07186 1.10061 3.24207 0.852245 3.47861C0.603877 3.71515 0.425146 4.00969 0.333963 4.33274C0.10365 5.54162 -0.0081705 6.76827 -5.50101e-05 7.99687C-0.00838577 9.22659 0.103435 10.4544 0.333963 11.6644C0.425123 11.9872 0.603753 12.2815 0.85196 12.5179C1.10017 12.7543 1.40924 12.9244 1.74821 13.0112C3.82244 13.2472 5.91068 13.3535 7.9995 13.3294C10.0883 13.3535 12.1766 13.2472 14.2508 13.0112C14.5898 12.9244 14.8988 12.7543 15.147 12.5179C15.3952 12.2815 15.5739 11.9872 15.665 11.6644C15.8959 10.4544 16.008 9.22662 15.9999 7.99687C16.0083 6.76714 15.8965 5.53935 15.6659 4.32935M6.39604 10.2854V5.7126L10.5526 7.99687L6.39604 10.2854Z" fill="#00202F"/>
</g>
<defs>
<clipPath id="clip0_118_150">
<rect width="16" height="10.6667" fill="white" transform="translate(0 2.66669)"/>
</clipPath>
</defs>
</svg>
